<mxfile host="app.diagrams.net" modified="2024-03-26T14:27:54.348Z" agent="Mozilla/5.0 (Windows NT 10.0; Win64; x64) AppleWebKit/537.36 (KHTML, like Gecko) Chrome/123.0.0.0 Safari/537.36" etag="0LkgqKgOVaKtxPj4xjO9" version="24.0.1" type="device">
  <diagram name="Pagina-1" id="I4EmwSFgDSJY8gpypUhG">
    <mxGraphModel dx="683" dy="355" grid="1" gridSize="10" guides="1" tooltips="1" connect="1" arrows="1" fold="1" page="1" pageScale="1" pageWidth="827" pageHeight="1169" math="0" shadow="0">
      <root>
        <mxCell id="0" />
        <mxCell id="1" parent="0" />
        <mxCell id="kIBanh0IJ7Cr4zYBQas--6" value="Tank 1" style="whiteSpace=wrap;html=1;aspect=fixed;" vertex="1" parent="1">
          <mxGeometry x="414" y="330" width="80" height="80" as="geometry" />
        </mxCell>
        <mxCell id="kIBanh0IJ7Cr4zYBQas--1" value="server" style="shape=cylinder3;whiteSpace=wrap;html=1;boundedLbl=1;backgroundOutline=1;size=15;" vertex="1" parent="1">
          <mxGeometry x="130" y="330" width="60" height="80" as="geometry" />
        </mxCell>
        <mxCell id="kIBanh0IJ7Cr4zYBQas--2" value="desktop app" style="shape=parallelogram;perimeter=parallelogramPerimeter;whiteSpace=wrap;html=1;fixedSize=1;" vertex="1" parent="1">
          <mxGeometry x="30" y="460" width="100" height="50" as="geometry" />
        </mxCell>
        <mxCell id="kIBanh0IJ7Cr4zYBQas--4" value="mobile app" style="shape=parallelogram;perimeter=parallelogramPerimeter;whiteSpace=wrap;html=1;fixedSize=1;" vertex="1" parent="1">
          <mxGeometry x="170" y="460" width="100" height="50" as="geometry" />
        </mxCell>
        <mxCell id="kIBanh0IJ7Cr4zYBQas--7" value="Tank n" style="whiteSpace=wrap;html=1;aspect=fixed;" vertex="1" parent="1">
          <mxGeometry x="610" y="330" width="80" height="80" as="geometry" />
        </mxCell>
        <mxCell id="kIBanh0IJ7Cr4zYBQas--8" value="Arduino" style="shape=hexagon;perimeter=hexagonPerimeter2;whiteSpace=wrap;html=1;fixedSize=1;" vertex="1" parent="1">
          <mxGeometry x="412" y="220" width="84" height="50" as="geometry" />
        </mxCell>
        <mxCell id="kIBanh0IJ7Cr4zYBQas--9" value="" style="endArrow=none;html=1;rounded=0;entryX=0.5;entryY=1;entryDx=0;entryDy=0;" edge="1" parent="1" source="kIBanh0IJ7Cr4zYBQas--6" target="kIBanh0IJ7Cr4zYBQas--8">
          <mxGeometry width="50" height="50" relative="1" as="geometry">
            <mxPoint x="390" y="410" as="sourcePoint" />
            <mxPoint x="440" y="360" as="targetPoint" />
          </mxGeometry>
        </mxCell>
        <mxCell id="kIBanh0IJ7Cr4zYBQas--10" value="" style="endArrow=none;html=1;rounded=0;exitX=0.5;exitY=0;exitDx=0;exitDy=0;exitPerimeter=0;" edge="1" parent="1" source="kIBanh0IJ7Cr4zYBQas--1">
          <mxGeometry width="50" height="50" relative="1" as="geometry">
            <mxPoint x="390" y="410" as="sourcePoint" />
            <mxPoint x="160" y="170" as="targetPoint" />
          </mxGeometry>
        </mxCell>
        <mxCell id="kIBanh0IJ7Cr4zYBQas--11" value="" style="endArrow=none;html=1;rounded=0;" edge="1" parent="1">
          <mxGeometry width="50" height="50" relative="1" as="geometry">
            <mxPoint x="160" y="170" as="sourcePoint" />
            <mxPoint x="520" y="170" as="targetPoint" />
          </mxGeometry>
        </mxCell>
        <mxCell id="kIBanh0IJ7Cr4zYBQas--12" value="" style="endArrow=none;dashed=1;html=1;dashPattern=1 3;strokeWidth=2;rounded=0;" edge="1" parent="1">
          <mxGeometry width="50" height="50" relative="1" as="geometry">
            <mxPoint x="600" y="170" as="sourcePoint" />
            <mxPoint x="520" y="170" as="targetPoint" />
          </mxGeometry>
        </mxCell>
        <mxCell id="kIBanh0IJ7Cr4zYBQas--13" value="" style="endArrow=none;html=1;rounded=0;" edge="1" parent="1">
          <mxGeometry width="50" height="50" relative="1" as="geometry">
            <mxPoint x="600" y="170" as="sourcePoint" />
            <mxPoint x="650" y="170" as="targetPoint" />
          </mxGeometry>
        </mxCell>
        <mxCell id="kIBanh0IJ7Cr4zYBQas--14" value="" style="endArrow=none;html=1;rounded=0;exitX=0.5;exitY=0;exitDx=0;exitDy=0;" edge="1" parent="1" source="kIBanh0IJ7Cr4zYBQas--16">
          <mxGeometry width="50" height="50" relative="1" as="geometry">
            <mxPoint x="390" y="410" as="sourcePoint" />
            <mxPoint x="650" y="170" as="targetPoint" />
          </mxGeometry>
        </mxCell>
        <mxCell id="kIBanh0IJ7Cr4zYBQas--15" value="" style="endArrow=none;html=1;rounded=0;exitX=0.5;exitY=0;exitDx=0;exitDy=0;" edge="1" parent="1" source="kIBanh0IJ7Cr4zYBQas--8">
          <mxGeometry width="50" height="50" relative="1" as="geometry">
            <mxPoint x="390" y="410" as="sourcePoint" />
            <mxPoint x="454" y="170" as="targetPoint" />
          </mxGeometry>
        </mxCell>
        <mxCell id="kIBanh0IJ7Cr4zYBQas--17" value="" style="endArrow=none;html=1;rounded=0;exitX=0.5;exitY=0;exitDx=0;exitDy=0;" edge="1" parent="1" source="kIBanh0IJ7Cr4zYBQas--7" target="kIBanh0IJ7Cr4zYBQas--16">
          <mxGeometry width="50" height="50" relative="1" as="geometry">
            <mxPoint x="650" y="330" as="sourcePoint" />
            <mxPoint x="650" y="170" as="targetPoint" />
          </mxGeometry>
        </mxCell>
        <mxCell id="kIBanh0IJ7Cr4zYBQas--16" value="Arduino" style="shape=hexagon;perimeter=hexagonPerimeter2;whiteSpace=wrap;html=1;fixedSize=1;" vertex="1" parent="1">
          <mxGeometry x="608" y="220" width="84" height="50" as="geometry" />
        </mxCell>
        <mxCell id="kIBanh0IJ7Cr4zYBQas--20" value="temperature&amp;nbsp;&lt;div&gt;sensor&lt;/div&gt;" style="text;html=1;align=center;verticalAlign=middle;resizable=0;points=[];autosize=1;strokeColor=none;fillColor=none;" vertex="1" parent="1">
          <mxGeometry x="449" y="276" width="90" height="40" as="geometry" />
        </mxCell>
        <mxCell id="kIBanh0IJ7Cr4zYBQas--21" value="temperature&amp;nbsp;&lt;div&gt;sensor&lt;/div&gt;" style="text;html=1;align=center;verticalAlign=middle;resizable=0;points=[];autosize=1;strokeColor=none;fillColor=none;" vertex="1" parent="1">
          <mxGeometry x="645" y="276" width="90" height="40" as="geometry" />
        </mxCell>
        <mxCell id="kIBanh0IJ7Cr4zYBQas--22" value="" style="endArrow=classic;html=1;rounded=0;exitX=0.145;exitY=1;exitDx=0;exitDy=-4.35;exitPerimeter=0;entryX=0.75;entryY=0;entryDx=0;entryDy=0;" edge="1" parent="1" source="kIBanh0IJ7Cr4zYBQas--1" target="kIBanh0IJ7Cr4zYBQas--2">
          <mxGeometry width="50" height="50" relative="1" as="geometry">
            <mxPoint x="190" y="410" as="sourcePoint" />
            <mxPoint x="240" y="360" as="targetPoint" />
          </mxGeometry>
        </mxCell>
        <mxCell id="kIBanh0IJ7Cr4zYBQas--23" value="" style="endArrow=classic;html=1;rounded=0;exitX=0.855;exitY=1;exitDx=0;exitDy=-4.35;exitPerimeter=0;entryX=0.5;entryY=0;entryDx=0;entryDy=0;" edge="1" parent="1" source="kIBanh0IJ7Cr4zYBQas--1" target="kIBanh0IJ7Cr4zYBQas--4">
          <mxGeometry width="50" height="50" relative="1" as="geometry">
            <mxPoint x="190" y="410" as="sourcePoint" />
            <mxPoint x="240" y="360" as="targetPoint" />
          </mxGeometry>
        </mxCell>
      </root>
    </mxGraphModel>
  </diagram>
</mxfile>
